<mxfile host="app.diagrams.net" agent="Mozilla/5.0 (Windows NT 10.0; Win64; x64) AppleWebKit/537.36 (KHTML, like Gecko) Chrome/128.0.0.0 Safari/537.36" version="24.7.12">
  <diagram id="C5RBs43oDa-KdzZeNtuy" name="Page-1">
    <mxGraphModel dx="1434" dy="780" grid="1" gridSize="10" guides="1" tooltips="1" connect="1" arrows="1" fold="1" page="1" pageScale="1" pageWidth="827" pageHeight="1169" math="0" shadow="0">
      <root>
        <mxCell id="WIyWlLk6GJQsqaUBKTNV-0" />
        <mxCell id="WIyWlLk6GJQsqaUBKTNV-1" parent="WIyWlLk6GJQsqaUBKTNV-0" />
        <mxCell id="ogkn3nqbPo5O1q_PO7xc-15" value="" style="edgeStyle=orthogonalEdgeStyle;rounded=0;orthogonalLoop=1;jettySize=auto;html=1;" parent="WIyWlLk6GJQsqaUBKTNV-1" source="WIyWlLk6GJQsqaUBKTNV-3" target="ogkn3nqbPo5O1q_PO7xc-14" edge="1">
          <mxGeometry relative="1" as="geometry" />
        </mxCell>
        <mxCell id="WIyWlLk6GJQsqaUBKTNV-3" value="Create empty mySave variable" style="rounded=1;whiteSpace=wrap;html=1;fontSize=12;glass=0;strokeWidth=1;shadow=0;" parent="WIyWlLk6GJQsqaUBKTNV-1" vertex="1">
          <mxGeometry x="30" y="120" width="120" height="40" as="geometry" />
        </mxCell>
        <mxCell id="ogkn3nqbPo5O1q_PO7xc-4" value="LoadGame function" style="rounded=0;whiteSpace=wrap;html=1;" parent="WIyWlLk6GJQsqaUBKTNV-1" vertex="1">
          <mxGeometry x="30" y="40" width="120" height="40" as="geometry" />
        </mxCell>
        <mxCell id="TE2q3S_GyHBpz-gPKg_0-25" style="edgeStyle=orthogonalEdgeStyle;rounded=0;orthogonalLoop=1;jettySize=auto;html=1;exitX=0.5;exitY=1;exitDx=0;exitDy=0;entryX=0.5;entryY=0;entryDx=0;entryDy=0;" parent="WIyWlLk6GJQsqaUBKTNV-1" source="ogkn3nqbPo5O1q_PO7xc-14" edge="1">
          <mxGeometry relative="1" as="geometry">
            <mxPoint x="90" y="280" as="targetPoint" />
          </mxGeometry>
        </mxCell>
        <mxCell id="ogkn3nqbPo5O1q_PO7xc-14" value="Create empty loadSave variable" style="whiteSpace=wrap;html=1;rounded=1;glass=0;strokeWidth=1;shadow=0;" parent="WIyWlLk6GJQsqaUBKTNV-1" vertex="1">
          <mxGeometry x="30" y="200" width="120" height="40" as="geometry" />
        </mxCell>
        <mxCell id="TE2q3S_GyHBpz-gPKg_0-27" value="" style="edgeStyle=orthogonalEdgeStyle;rounded=0;orthogonalLoop=1;jettySize=auto;html=1;" parent="WIyWlLk6GJQsqaUBKTNV-1" source="ogkn3nqbPo5O1q_PO7xc-23" target="TE2q3S_GyHBpz-gPKg_0-11" edge="1">
          <mxGeometry relative="1" as="geometry" />
        </mxCell>
        <mxCell id="ogkn3nqbPo5O1q_PO7xc-23" value="cast loadSave to mySave" style="rounded=1;whiteSpace=wrap;html=1;" parent="WIyWlLk6GJQsqaUBKTNV-1" vertex="1">
          <mxGeometry x="210" y="360" width="160" height="40" as="geometry" />
        </mxCell>
        <mxCell id="ogkn3nqbPo5O1q_PO7xc-33" value="saveGame function" style="rounded=0;whiteSpace=wrap;html=1;" parent="WIyWlLk6GJQsqaUBKTNV-1" vertex="1">
          <mxGeometry x="470" y="40" width="120" height="40" as="geometry" />
        </mxCell>
        <mxCell id="ogkn3nqbPo5O1q_PO7xc-36" value="" style="edgeStyle=orthogonalEdgeStyle;rounded=0;orthogonalLoop=1;jettySize=auto;html=1;" parent="WIyWlLk6GJQsqaUBKTNV-1" source="ogkn3nqbPo5O1q_PO7xc-34" target="ogkn3nqbPo5O1q_PO7xc-35" edge="1">
          <mxGeometry relative="1" as="geometry" />
        </mxCell>
        <mxCell id="ogkn3nqbPo5O1q_PO7xc-34" value="Create newSave variable" style="rounded=1;whiteSpace=wrap;html=1;" parent="WIyWlLk6GJQsqaUBKTNV-1" vertex="1">
          <mxGeometry x="470" y="120" width="120" height="40" as="geometry" />
        </mxCell>
        <mxCell id="TE2q3S_GyHBpz-gPKg_0-8" style="edgeStyle=orthogonalEdgeStyle;rounded=0;orthogonalLoop=1;jettySize=auto;html=1;exitX=0.5;exitY=1;exitDx=0;exitDy=0;entryX=0.5;entryY=0;entryDx=0;entryDy=0;" parent="WIyWlLk6GJQsqaUBKTNV-1" source="ogkn3nqbPo5O1q_PO7xc-35" target="TE2q3S_GyHBpz-gPKg_0-0" edge="1">
          <mxGeometry relative="1" as="geometry" />
        </mxCell>
        <mxCell id="ogkn3nqbPo5O1q_PO7xc-35" value="Cast newSave to mySave" style="whiteSpace=wrap;html=1;rounded=1;" parent="WIyWlLk6GJQsqaUBKTNV-1" vertex="1">
          <mxGeometry x="470" y="200" width="120" height="40" as="geometry" />
        </mxCell>
        <mxCell id="jViTt13gUSBcXbafGttR-3" value="" style="endArrow=none;html=1;rounded=0;" parent="WIyWlLk6GJQsqaUBKTNV-1" edge="1">
          <mxGeometry width="50" height="50" relative="1" as="geometry">
            <mxPoint x="400" y="1160" as="sourcePoint" />
            <mxPoint x="400" as="targetPoint" />
          </mxGeometry>
        </mxCell>
        <mxCell id="TE2q3S_GyHBpz-gPKg_0-3" style="edgeStyle=orthogonalEdgeStyle;rounded=0;orthogonalLoop=1;jettySize=auto;html=1;exitX=0.5;exitY=1;exitDx=0;exitDy=0;entryX=0.5;entryY=0;entryDx=0;entryDy=0;" parent="WIyWlLk6GJQsqaUBKTNV-1" source="TE2q3S_GyHBpz-gPKg_0-0" target="TE2q3S_GyHBpz-gPKg_0-1" edge="1">
          <mxGeometry relative="1" as="geometry" />
        </mxCell>
        <mxCell id="TE2q3S_GyHBpz-gPKg_0-0" value="Check validity of mySave" style="rounded=1;whiteSpace=wrap;html=1;" parent="WIyWlLk6GJQsqaUBKTNV-1" vertex="1">
          <mxGeometry x="470" y="280" width="120" height="40" as="geometry" />
        </mxCell>
        <mxCell id="TE2q3S_GyHBpz-gPKg_0-5" style="edgeStyle=orthogonalEdgeStyle;rounded=0;orthogonalLoop=1;jettySize=auto;html=1;exitX=0.5;exitY=1;exitDx=0;exitDy=0;entryX=0.5;entryY=0;entryDx=0;entryDy=0;" parent="WIyWlLk6GJQsqaUBKTNV-1" source="TE2q3S_GyHBpz-gPKg_0-1" target="TE2q3S_GyHBpz-gPKg_0-2" edge="1">
          <mxGeometry relative="1" as="geometry" />
        </mxCell>
        <mxCell id="TE2q3S_GyHBpz-gPKg_0-1" value="Set Highscore" style="rounded=1;whiteSpace=wrap;html=1;" parent="WIyWlLk6GJQsqaUBKTNV-1" vertex="1">
          <mxGeometry x="470" y="360" width="120" height="40" as="geometry" />
        </mxCell>
        <mxCell id="TE2q3S_GyHBpz-gPKg_0-6" style="edgeStyle=orthogonalEdgeStyle;rounded=0;orthogonalLoop=1;jettySize=auto;html=1;exitX=0.5;exitY=1;exitDx=0;exitDy=0;entryX=0.5;entryY=0;entryDx=0;entryDy=0;" parent="WIyWlLk6GJQsqaUBKTNV-1" source="TE2q3S_GyHBpz-gPKg_0-2" edge="1">
          <mxGeometry relative="1" as="geometry">
            <mxPoint x="530" y="520" as="targetPoint" />
          </mxGeometry>
        </mxCell>
        <mxCell id="TE2q3S_GyHBpz-gPKg_0-2" value="Set LastPlayerPosition" style="rounded=1;whiteSpace=wrap;html=1;" parent="WIyWlLk6GJQsqaUBKTNV-1" vertex="1">
          <mxGeometry x="460" y="440" width="140" height="40" as="geometry" />
        </mxCell>
        <mxCell id="TE2q3S_GyHBpz-gPKg_0-14" value="" style="edgeStyle=orthogonalEdgeStyle;rounded=0;orthogonalLoop=1;jettySize=auto;html=1;" parent="WIyWlLk6GJQsqaUBKTNV-1" source="TE2q3S_GyHBpz-gPKg_0-11" target="TE2q3S_GyHBpz-gPKg_0-13" edge="1">
          <mxGeometry relative="1" as="geometry" />
        </mxCell>
        <mxCell id="TE2q3S_GyHBpz-gPKg_0-11" value="Get Highscore from mySave" style="whiteSpace=wrap;html=1;rounded=1;glass=0;strokeWidth=1;shadow=0;" parent="WIyWlLk6GJQsqaUBKTNV-1" vertex="1">
          <mxGeometry x="230" y="440" width="120" height="40" as="geometry" />
        </mxCell>
        <mxCell id="TE2q3S_GyHBpz-gPKg_0-13" value="Get LastPlayerLocation from mySave" style="whiteSpace=wrap;html=1;rounded=1;glass=0;strokeWidth=1;shadow=0;" parent="WIyWlLk6GJQsqaUBKTNV-1" vertex="1">
          <mxGeometry x="220" y="520" width="140" height="40" as="geometry" />
        </mxCell>
        <mxCell id="kn5EsFqTt9w1R8y-4nVx-3" value="" style="edgeStyle=orthogonalEdgeStyle;rounded=0;orthogonalLoop=1;jettySize=auto;html=1;" parent="WIyWlLk6GJQsqaUBKTNV-1" source="kn5EsFqTt9w1R8y-4nVx-0" target="kn5EsFqTt9w1R8y-4nVx-2" edge="1">
          <mxGeometry relative="1" as="geometry" />
        </mxCell>
        <mxCell id="kn5EsFqTt9w1R8y-4nVx-0" value="Create loadSuccess boolean" style="rounded=1;whiteSpace=wrap;html=1;" parent="WIyWlLk6GJQsqaUBKTNV-1" vertex="1">
          <mxGeometry x="30" y="280" width="120" height="40" as="geometry" />
        </mxCell>
        <mxCell id="kn5EsFqTt9w1R8y-4nVx-13" value="" style="edgeStyle=orthogonalEdgeStyle;rounded=0;orthogonalLoop=1;jettySize=auto;html=1;" parent="WIyWlLk6GJQsqaUBKTNV-1" source="kn5EsFqTt9w1R8y-4nVx-2" target="kn5EsFqTt9w1R8y-4nVx-4" edge="1">
          <mxGeometry relative="1" as="geometry" />
        </mxCell>
        <mxCell id="kn5EsFqTt9w1R8y-4nVx-2" value="Create saveReader for reading JSON saves" style="whiteSpace=wrap;html=1;rounded=1;" parent="WIyWlLk6GJQsqaUBKTNV-1" vertex="1">
          <mxGeometry x="20" y="360" width="140" height="40" as="geometry" />
        </mxCell>
        <mxCell id="kn5EsFqTt9w1R8y-4nVx-16" value="" style="edgeStyle=orthogonalEdgeStyle;rounded=0;orthogonalLoop=1;jettySize=auto;html=1;" parent="WIyWlLk6GJQsqaUBKTNV-1" source="kn5EsFqTt9w1R8y-4nVx-4" target="kn5EsFqTt9w1R8y-4nVx-6" edge="1">
          <mxGeometry relative="1" as="geometry" />
        </mxCell>
        <mxCell id="kn5EsFqTt9w1R8y-4nVx-4" value="Deserialise into JSON object" style="whiteSpace=wrap;html=1;rounded=1;" parent="WIyWlLk6GJQsqaUBKTNV-1" vertex="1">
          <mxGeometry x="30" y="440" width="120" height="40" as="geometry" />
        </mxCell>
        <mxCell id="kn5EsFqTt9w1R8y-4nVx-6" value="Get highscore via Numberfield &quot;Highscore&quot;" style="whiteSpace=wrap;html=1;rounded=1;" parent="WIyWlLk6GJQsqaUBKTNV-1" vertex="1">
          <mxGeometry x="20" y="520" width="140" height="40" as="geometry" />
        </mxCell>
        <mxCell id="kn5EsFqTt9w1R8y-4nVx-11" value="" style="edgeStyle=orthogonalEdgeStyle;rounded=0;orthogonalLoop=1;jettySize=auto;html=1;" parent="WIyWlLk6GJQsqaUBKTNV-1" source="kn5EsFqTt9w1R8y-4nVx-8" target="kn5EsFqTt9w1R8y-4nVx-10" edge="1">
          <mxGeometry relative="1" as="geometry" />
        </mxCell>
        <mxCell id="kn5EsFqTt9w1R8y-4nVx-8" value="Get LastPlayerLocation FVector as string field" style="whiteSpace=wrap;html=1;rounded=1;" parent="WIyWlLk6GJQsqaUBKTNV-1" vertex="1">
          <mxGeometry x="200" y="120" width="180" height="40" as="geometry" />
        </mxCell>
        <mxCell id="kn5EsFqTt9w1R8y-4nVx-17" value="" style="edgeStyle=orthogonalEdgeStyle;rounded=0;orthogonalLoop=1;jettySize=auto;html=1;" parent="WIyWlLk6GJQsqaUBKTNV-1" source="kn5EsFqTt9w1R8y-4nVx-10" target="kn5EsFqTt9w1R8y-4nVx-15" edge="1">
          <mxGeometry relative="1" as="geometry" />
        </mxCell>
        <mxCell id="kn5EsFqTt9w1R8y-4nVx-10" value="Initialising an FVector&amp;nbsp; via a string" style="whiteSpace=wrap;html=1;rounded=1;" parent="WIyWlLk6GJQsqaUBKTNV-1" vertex="1">
          <mxGeometry x="230" y="200" width="120" height="40" as="geometry" />
        </mxCell>
        <mxCell id="kn5EsFqTt9w1R8y-4nVx-14" value="" style="curved=0;endArrow=classic;html=1;rounded=0;entryX=0.5;entryY=0;entryDx=0;entryDy=0;" parent="WIyWlLk6GJQsqaUBKTNV-1" target="kn5EsFqTt9w1R8y-4nVx-8" edge="1">
          <mxGeometry width="50" height="50" relative="1" as="geometry">
            <mxPoint x="160" y="540" as="sourcePoint" />
            <mxPoint x="310" y="120" as="targetPoint" />
            <Array as="points">
              <mxPoint x="190" y="540" />
              <mxPoint x="190" y="340" />
              <mxPoint x="190" y="240" />
              <mxPoint x="190" y="80" />
              <mxPoint x="290" y="80" />
            </Array>
          </mxGeometry>
        </mxCell>
        <mxCell id="kn5EsFqTt9w1R8y-4nVx-18" value="" style="edgeStyle=orthogonalEdgeStyle;rounded=0;orthogonalLoop=1;jettySize=auto;html=1;" parent="WIyWlLk6GJQsqaUBKTNV-1" source="kn5EsFqTt9w1R8y-4nVx-15" target="ogkn3nqbPo5O1q_PO7xc-23" edge="1">
          <mxGeometry relative="1" as="geometry" />
        </mxCell>
        <mxCell id="kn5EsFqTt9w1R8y-4nVx-15" value="Reading name and transform pairs out of the array fields" style="rounded=1;whiteSpace=wrap;html=1;" parent="WIyWlLk6GJQsqaUBKTNV-1" vertex="1">
          <mxGeometry x="230" y="280" width="120" height="40" as="geometry" />
        </mxCell>
        <mxCell id="kn5EsFqTt9w1R8y-4nVx-19" value="Create saveJson FJsonObject" style="rounded=1;whiteSpace=wrap;html=1;" parent="WIyWlLk6GJQsqaUBKTNV-1" vertex="1">
          <mxGeometry x="470" y="520" width="120" height="40" as="geometry" />
        </mxCell>
        <mxCell id="kn5EsFqTt9w1R8y-4nVx-23" value="" style="edgeStyle=orthogonalEdgeStyle;rounded=0;orthogonalLoop=1;jettySize=auto;html=1;" parent="WIyWlLk6GJQsqaUBKTNV-1" source="kn5EsFqTt9w1R8y-4nVx-20" target="kn5EsFqTt9w1R8y-4nVx-22" edge="1">
          <mxGeometry relative="1" as="geometry" />
        </mxCell>
        <mxCell id="kn5EsFqTt9w1R8y-4nVx-20" value="Create Highscore Number Field" style="whiteSpace=wrap;html=1;rounded=1;" parent="WIyWlLk6GJQsqaUBKTNV-1" vertex="1">
          <mxGeometry x="700" y="120" width="120" height="40" as="geometry" />
        </mxCell>
        <mxCell id="kn5EsFqTt9w1R8y-4nVx-25" value="" style="edgeStyle=orthogonalEdgeStyle;rounded=0;orthogonalLoop=1;jettySize=auto;html=1;" parent="WIyWlLk6GJQsqaUBKTNV-1" source="kn5EsFqTt9w1R8y-4nVx-22" target="kn5EsFqTt9w1R8y-4nVx-24" edge="1">
          <mxGeometry relative="1" as="geometry" />
        </mxCell>
        <mxCell id="kn5EsFqTt9w1R8y-4nVx-22" value="Create LastPlayerLocation String Field" style="whiteSpace=wrap;html=1;rounded=1;" parent="WIyWlLk6GJQsqaUBKTNV-1" vertex="1">
          <mxGeometry x="700" y="200" width="120" height="40" as="geometry" />
        </mxCell>
        <mxCell id="StQzm8vPZfpFGvw88C2T-1" value="" style="edgeStyle=orthogonalEdgeStyle;rounded=0;orthogonalLoop=1;jettySize=auto;html=1;" edge="1" parent="WIyWlLk6GJQsqaUBKTNV-1" source="kn5EsFqTt9w1R8y-4nVx-24" target="StQzm8vPZfpFGvw88C2T-0">
          <mxGeometry relative="1" as="geometry" />
        </mxCell>
        <mxCell id="kn5EsFqTt9w1R8y-4nVx-24" value="Create JFsonValueObjects for each Game Object in SaveTransformByName" style="whiteSpace=wrap;html=1;rounded=1;" parent="WIyWlLk6GJQsqaUBKTNV-1" vertex="1">
          <mxGeometry x="650" y="280" width="220" height="40" as="geometry" />
        </mxCell>
        <mxCell id="StQzm8vPZfpFGvw88C2T-3" value="" style="edgeStyle=orthogonalEdgeStyle;rounded=0;orthogonalLoop=1;jettySize=auto;html=1;" edge="1" parent="WIyWlLk6GJQsqaUBKTNV-1" source="StQzm8vPZfpFGvw88C2T-0" target="StQzm8vPZfpFGvw88C2T-2">
          <mxGeometry relative="1" as="geometry" />
        </mxCell>
        <mxCell id="StQzm8vPZfpFGvw88C2T-0" value="Create &quot;SaveTransformsByName&quot; as an Array of Transforms" style="whiteSpace=wrap;html=1;rounded=1;" vertex="1" parent="WIyWlLk6GJQsqaUBKTNV-1">
          <mxGeometry x="670" y="360" width="180" height="40" as="geometry" />
        </mxCell>
        <mxCell id="StQzm8vPZfpFGvw88C2T-5" value="" style="edgeStyle=orthogonalEdgeStyle;rounded=0;orthogonalLoop=1;jettySize=auto;html=1;" edge="1" parent="WIyWlLk6GJQsqaUBKTNV-1" source="StQzm8vPZfpFGvw88C2T-2" target="StQzm8vPZfpFGvw88C2T-4">
          <mxGeometry relative="1" as="geometry" />
        </mxCell>
        <mxCell id="StQzm8vPZfpFGvw88C2T-2" value="Serialise contents written to saveJson as a string" style="whiteSpace=wrap;html=1;rounded=1;" vertex="1" parent="WIyWlLk6GJQsqaUBKTNV-1">
          <mxGeometry x="700" y="440" width="120" height="40" as="geometry" />
        </mxCell>
        <mxCell id="StQzm8vPZfpFGvw88C2T-4" value="Save serialised FString as a file at filepath" style="whiteSpace=wrap;html=1;rounded=1;" vertex="1" parent="WIyWlLk6GJQsqaUBKTNV-1">
          <mxGeometry x="690" y="520" width="140" height="40" as="geometry" />
        </mxCell>
        <mxCell id="StQzm8vPZfpFGvw88C2T-7" value="" style="curved=0;endArrow=classic;html=1;rounded=0;entryX=0.5;entryY=0;entryDx=0;entryDy=0;" edge="1" parent="WIyWlLk6GJQsqaUBKTNV-1" target="kn5EsFqTt9w1R8y-4nVx-20">
          <mxGeometry width="50" height="50" relative="1" as="geometry">
            <mxPoint x="590" y="540" as="sourcePoint" />
            <mxPoint x="640" y="490" as="targetPoint" />
            <Array as="points">
              <mxPoint x="630" y="540" />
              <mxPoint x="630" y="80" />
              <mxPoint x="760" y="80" />
            </Array>
          </mxGeometry>
        </mxCell>
      </root>
    </mxGraphModel>
  </diagram>
</mxfile>
